<?xml version="1.0" encoding="UTF-8"?>
<svg width="24" height="24" version="1.1" viewBox="0 0 700 700" xmlns="http://www.w3.org/2000/svg">
 <g>
  <path d="m350 87.5c4.6211 0 8.3711 3.7461 8.3711 8.3711v50.215c0 4.625-3.75 8.3711-8.3711 8.3711s-8.3711-3.7461-8.3711-8.3711v-50.215c0-4.625 3.75-8.3711 8.3711-8.3711z"/>
  <path d="m201.8 131.8c3.2656-3.2695 8.5664-3.2695 11.836 0l41.848 41.848c3.2656 3.2695 3.2656 8.5664 0 11.836-3.2695 3.2656-8.5664 3.2656-11.836 0l-41.848-41.848c-3.2695-3.2695-3.2695-8.5703 0-11.836z"/>
  <path d="m498.2 143.64c3.2695-3.2695 3.2695-8.5703 0-11.836-3.2695-3.2695-8.5664-3.2695-11.832 0l-41.852 41.848c-3.2656 3.2695-3.2656 8.5664 0 11.836 3.2695 3.2656 8.5664 3.2656 11.836 0z"/>
  <path d="m450.43 280c0 55.469-44.965 100.43-100.43 100.43s-100.43-44.965-100.43-100.43 44.965-100.43 100.43-100.43 100.43 44.965 100.43 100.43z"/>
  <path d="m456.35 374.52 41.848 41.852c3.2695 3.2656 3.2695 8.5625 0 11.832s-8.5664 3.2695-11.832 0l-41.852-41.848c-3.2656-3.2695-3.2656-8.5664 0-11.836 3.2695-3.2656 8.5664-3.2656 11.836 0z"/>
  <path d="m213.64 428.2 41.848-41.848c3.2656-3.2695 3.2656-8.5664 0-11.836-3.2695-3.2656-8.5664-3.2656-11.836 0l-41.848 41.852c-3.2695 3.2656-3.2695 8.5625 0 11.832 3.2656 3.2695 8.5664 3.2695 11.836 0z"/>
  <path d="m534.13 288.37c4.625 0 8.3711-3.75 8.3711-8.3711s-3.7461-8.3711-8.3711-8.3711h-50.215c-4.625 0-8.3711 3.75-8.3711 8.3711s3.7461 8.3711 8.3711 8.3711z"/>
  <path d="m224.46 280c0 4.6211-3.7461 8.3711-8.3711 8.3711h-50.215c-4.625 0-8.3711-3.75-8.3711-8.3711s3.7461-8.3711 8.3711-8.3711h50.215c4.625 0 8.3711 3.75 8.3711 8.3711z"/>
  <path d="m358.37 413.91c0-4.625-3.75-8.3711-8.3711-8.3711s-8.3711 3.7461-8.3711 8.3711v50.215c0 4.625 3.75 8.3711 8.3711 8.3711s8.3711-3.7461 8.3711-8.3711z"/>
 </g>
</svg>
